<svg width="900" height="540" viewBox="0 0 900 540" fill="none" xmlns="http://www.w3.org/2000/svg">
  <rect width="900" height="540" rx="36" fill="#081224"/>
  <text x="60" y="72" fill="#F5F7FF" font-size="32" font-family="Space Grotesk, sans-serif">Tree Traversal View</text>
  <g stroke="#6AE5FF" stroke-width="4" stroke-linecap="round">
    <path d="M450 154L314 248"/><path d="M450 154L586 248"/><path d="M314 248L230 344"/><path d="M314 248L398 344"/><path d="M586 248L502 344"/><path d="M586 248L670 344"/>
  </g>
  <g fill="#11234A" stroke="#8D6BFF" stroke-opacity=".4" stroke-width="2">
    <circle cx="450" cy="140" r="34"/><circle cx="314" cy="260" r="34"/><circle cx="586" cy="260" r="34"/><circle cx="230" cy="364" r="30"/><circle cx="398" cy="364" r="30"/><circle cx="502" cy="364" r="30"/><circle cx="670" cy="364" r="30"/>
  </g>
  <g fill="#F5F7FF" font-size="24" font-family="Space Grotesk, sans-serif" text-anchor="middle">
    <text x="450" y="149">8</text><text x="314" y="269">4</text><text x="586" y="269">12</text><text x="230" y="372">2</text><text x="398" y="372">6</text><text x="502" y="372">10</text><text x="670" y="372">14</text>
  </g>
  <text x="60" y="468" fill="#A7B7D9" font-size="16" font-family="IBM Plex Sans, sans-serif">Preorder: root left right   Inorder: left root right   Level order: queue based</text>
</svg>
